<?xml version="1.0" encoding="utf-8"?>
<!-- Generator: Adobe Illustrator 23.0.3, SVG Export Plug-In . SVG Version: 6.00 Build 0)  -->
<svg version="1.1" id="Warstwa_1" xmlns="http://www.w3.org/2000/svg" xmlns:xlink="http://www.w3.org/1999/xlink" x="0px" y="0px"
	 viewBox="0 0 283.46 283.46" style="enable-background:new 0 0 283.46 283.46;" xml:space="preserve">
<style type="text/css">
	.st0{fill:#ED2224;}
	.st1{fill:#9D1C20;}
	.st2{opacity:0.58;fill:#AA1E23;}
</style>
<g>
	<g>
		<ellipse class="st0" cx="141.64" cy="141.44" rx="141.64" ry="141.44"/>
	</g>
	<ellipse class="st1" cx="243.65" cy="122.07" rx="4.22" ry="4.21"/>
	<ellipse class="st1" cx="158.5" cy="126.28" rx="8.43" ry="8.42"/>
	<ellipse class="st1" cx="115.5" cy="174.27" rx="9.27" ry="9.26"/>
	<ellipse class="st1" cx="85.15" cy="106.92" rx="5.9" ry="5.89"/>
	<ellipse class="st1" cx="118.03" cy="57.25" rx="3.37" ry="3.37"/>
	<ellipse class="st1" cx="74.19" cy="58.93" rx="5.06" ry="5.05"/>
	<ellipse class="st1" cx="46.37" cy="179.32" rx="14.33" ry="14.31"/>
	<ellipse class="st1" cx="161.87" cy="260.99" rx="11.8" ry="11.79"/>
	<ellipse class="st1" cx="217.52" cy="234.05" rx="11.8" ry="11.79"/>
	<ellipse class="st1" cx="211.61" cy="170.9" rx="5.9" ry="5.89"/>
	<path class="st1" d="M225.95,126.28c0,0-1.89,0-4.22,0s-4.22,0-4.22,0s1.89,0,4.22,0S225.95,126.28,225.95,126.28z"/>
	<path class="st2" d="M228.1,103.93c-0.58,78.11-64.46,140.97-142.68,140.39c-17.89-0.13-34.96-3.6-50.67-9.76
		c25.74,29.67,63.62,48.58,106.02,48.9c78.22,0.58,142.1-62.28,142.68-140.39c0.45-60.25-36.92-111.95-89.92-132.72
		C215.28,35.42,228.37,68.16,228.1,103.93z"/>
	<ellipse class="st1" cx="221.73" cy="79.98" rx="4.22" ry="4.21"/>
	<ellipse class="st1" cx="202.34" cy="58.93" rx="10.12" ry="10.1"/>
	<ellipse class="st1" cx="197.28" cy="101.03" rx="5.06" ry="5.05"/>
	<ellipse class="st1" cx="175.36" cy="62.3" rx="1.69" ry="1.68"/>
	<ellipse class="st1" cx="47.21" cy="109.45" rx="8.43" ry="8.42"/>
	<ellipse class="st1" cx="76.72" cy="221.42" rx="2.53" ry="2.53"/>
	<ellipse class="st1" cx="108.76" cy="236.57" rx="2.53" ry="2.53"/>
	<ellipse class="st1" cx="139.95" cy="220.58" rx="1.69" ry="1.68"/>
	<ellipse class="st1" cx="181.26" cy="182.69" rx="4.22" ry="4.21"/>
	<ellipse class="st1" cx="243.65" cy="202.9" rx="4.22" ry="4.21"/>
	<ellipse class="st1" cx="137.42" cy="22.73" rx="4.22" ry="4.21"/>
	<ellipse class="st1" cx="155.97" cy="69.88" rx="5.9" ry="5.89"/>
	<ellipse class="st1" cx="125.62" cy="113.66" rx="4.22" ry="4.21"/>
	<ellipse class="st1" cx="140.79" cy="155.75" rx="2.53" ry="2.53"/>
	<path class="st1" d="M96.11,141.44c0,0-2.64,0-5.9,0c-3.26,0-5.9,0-5.9,0s2.64,0,5.9,0C93.47,141.44,96.11,141.44,96.11,141.44z"/>
	<path class="st1" d="M38.78,138.07c0,1.86,0,3.37,0,3.37S38.78,139.93,38.78,138.07s0-3.37,0-3.37S38.78,136.21,38.78,138.07z"/>
	<ellipse class="st1" cx="260.51" cy="98.5" rx="2.53" ry="2.53"/>
	<ellipse class="st1" cx="254.61" cy="161.64" rx="3.37" ry="3.37"/>
	<ellipse class="st1" cx="106.23" cy="33.68" rx="10.12" ry="10.1"/>
	<ellipse class="st1" cx="214.14" cy="134.7" rx="8.43" ry="8.42"/>
	<ellipse class="st1" cx="114.66" cy="260.99" rx="6.74" ry="6.74"/>
</g>
</svg>
