<?xml version="1.0" encoding="utf-8"?>
<!-- Generator: Adobe Illustrator 23.0.3, SVG Export Plug-In . SVG Version: 6.00 Build 0)  -->
<svg version="1.1" id="Warstwa_1" xmlns="http://www.w3.org/2000/svg" xmlns:xlink="http://www.w3.org/1999/xlink" x="0px" y="0px"
	 viewBox="0 0 283.46 283.46" style="enable-background:new 0 0 283.46 283.46;" xml:space="preserve">
<style type="text/css">
	.st0{fill:#818181;}
	.st1{fill:#5B5152;}
	.st2{opacity:0.67;fill:#2E2828;}
</style>
<g>
	<path class="st0" d="M278.97,106.24c0.01,0.04,0.02,0.09,0.03,0.13C278.99,106.33,278.98,106.29,278.97,106.24z"/>
	<path class="st0" d="M280.2,111.54c0.88,4.14,1.61,8.32,2.13,12.55C281.8,119.85,281.09,115.66,280.2,111.54z"/>
	<path class="st0" d="M282.34,124.2c0.68,5.51,1.04,11.09,1.08,16.71c0.49,77.87-62.37,141.4-140.4,141.89
		c-42.3,0.27-80.34-18.07-106.42-47.3c15.76,5.92,32.83,9.15,50.67,9.04c71.12-0.45,129.62-53.27,139.05-121.58
		c-4.94-1.46-8.27-4.14-8.27-7.22c0-3.33,3.89-6.2,9.52-7.55c0.06-1.84,0.12-3.68,0.11-5.54c-0.07-10.86-1.38-21.42-3.78-31.57
		c-1.68,0.64-4.05,1.04-6.68,1.04c-5.09,0-9.23-1.5-9.23-3.35c0-1.85,4.13-3.35,9.23-3.35c2.01,0,3.86,0.24,5.37,0.63
		c-5.84-21.15-16.47-40.3-30.67-56.22c2.56,0.74,5.07,1.6,7.55,2.53C181.81,4.44,162.27,0,141.73,0C63.46,0,0,63.46,0,141.73
		c0,78.28,63.46,141.73,141.73,141.73s141.73-63.46,141.73-141.73C283.46,135.79,283.05,129.95,282.34,124.2z M40.26,189.54
		c0-2.78,6.76-5.03,15.1-5.03s15.1,2.25,15.1,5.03c0,2.78-6.76,5.03-15.1,5.03S40.26,192.31,40.26,189.54z M73.8,226.44
		c-6.48,0-11.74-2.25-11.74-5.03c0-2.78,5.26-5.03,11.74-5.03c6.48,0,11.74,2.25,11.74,5.03C85.54,224.18,80.29,226.44,73.8,226.44z
		 M83.03,169.41c-5.09,0-9.23-1.88-9.23-4.19c0-2.32,4.13-4.19,9.23-4.19s9.23,1.88,9.23,4.19
		C92.25,167.53,88.12,169.41,83.03,169.41z M118.25,238.18c-3.24,0-5.87-2.63-5.87-5.87s2.63-5.87,5.87-5.87
		c3.24,0,5.87,2.63,5.87,5.87S121.49,238.18,118.25,238.18z M112.38,202.95c-11.12,0-20.13-4.13-20.13-9.23
		c0-5.09,9.01-9.23,20.13-9.23s20.13,4.13,20.13,9.23C132.51,198.82,123.5,202.95,112.38,202.95z M102.32,150.96
		c0-0.93,3.38-1.68,7.55-1.68c4.17,0,7.55,0.75,7.55,1.68c0,0.93-3.38,1.68-7.55,1.68C105.69,152.63,102.32,151.88,102.32,150.96z
		 M139.22,155.99c-5.56,0-10.06-1.5-10.06-3.35c0-1.85,4.51-3.35,10.06-3.35s10.06,1.5,10.06,3.35
		C149.28,154.49,144.77,155.99,139.22,155.99z M142.57,88.06c0-1.39,2.25-2.52,5.03-2.52c2.78,0,5.03,1.13,5.03,2.52
		c0,1.39-2.25,2.52-5.03,2.52C144.82,90.57,142.57,89.45,142.57,88.06z M167.73,78.83c0-1.85,6.38-3.35,14.26-3.35
		s14.26,1.5,14.26,3.35c0,1.85-6.38,3.35-14.26,3.35S167.73,80.69,167.73,78.83z M193.73,177.79c-7.87,0-14.26-3.75-14.26-8.39
		s6.38-8.39,14.26-8.39s14.26,3.75,14.26,8.39S201.6,177.79,193.73,177.79z M207.99,114.06c0,0.93-4.51,1.68-10.06,1.68
		s-10.06-0.75-10.06-1.68c0-0.93,4.51-1.68,10.06-1.68S207.99,113.13,207.99,114.06z M181.15,23.48c12.04,0,21.8,4.51,21.8,10.06
		s-9.76,10.06-21.8,10.06s-21.8-4.51-21.8-10.06S169.11,23.48,181.15,23.48z M167.73,111.54c0,2.32-4.13,4.19-9.23,4.19
		c-5.09,0-9.23-1.88-9.23-4.19c0-2.32,4.13-4.19,9.23-4.19C163.6,107.35,167.73,109.22,167.73,111.54z M137.54,18.45
		c8.34,0,15.1,2.25,15.1,5.03s-6.76,5.03-15.1,5.03c-8.34,0-15.1-2.25-15.1-5.03S129.2,18.45,137.54,18.45z M124.96,112.38
		c4.17,0,7.55,1.88,7.55,4.19c0,2.32-3.38,4.19-7.55,4.19c-4.17,0-7.55-1.88-7.55-4.19C117.41,114.26,120.79,112.38,124.96,112.38z
		 M101.48,33.55c8.8,0,15.93,3,15.93,6.71c0,3.71-7.13,6.71-15.93,6.71s-15.93-3-15.93-6.71C85.54,36.55,92.68,33.55,101.48,33.55z
		 M101.48,58.71c8.8,0,15.93,3.75,15.93,8.39c0,4.63-7.13,8.39-15.93,8.39s-15.93-3.75-15.93-8.39
		C85.54,62.46,92.68,58.71,101.48,58.71z M83.87,125.8c0,5.56-10.14,10.06-22.64,10.06s-22.64-4.51-22.64-10.06
		s10.14-10.06,22.64-10.06S83.87,120.24,83.87,125.8z M54.51,62.06c4.17,0,7.55,2.25,7.55,5.03s-3.38,5.03-7.55,5.03
		s-7.55-2.25-7.55-5.03S50.34,62.06,54.51,62.06z M20.13,155.99c-5.56,0-10.06-1.5-10.06-3.35c0-1.85,4.51-3.35,10.06-3.35
		s10.06,1.5,10.06,3.35C30.19,154.49,25.69,155.99,20.13,155.99z M30.19,100.64c0-1.85,3.75-3.35,8.39-3.35s8.39,1.5,8.39,3.35
		c0,1.85-3.75,3.35-8.39,3.35S30.19,102.49,30.19,100.64z"/>
	<ellipse class="st1" cx="181.15" cy="33.55" rx="21.8" ry="10.06"/>
	<ellipse class="st1" cx="181.99" cy="78.83" rx="14.26" ry="3.35"/>
	<ellipse class="st1" cx="101.48" cy="67.09" rx="15.93" ry="8.39"/>
	<ellipse class="st1" cx="112.38" cy="193.73" rx="20.13" ry="9.23"/>
	<ellipse class="st1" cx="61.22" cy="125.8" rx="22.64" ry="10.06"/>
	<ellipse class="st1" cx="158.51" cy="111.54" rx="9.23" ry="4.19"/>
	<ellipse class="st1" cx="139.22" cy="152.63" rx="10.06" ry="3.35"/>
	<ellipse class="st1" cx="55.35" cy="189.54" rx="15.1" ry="5.03"/>
	<ellipse class="st1" cx="20.13" cy="152.63" rx="10.06" ry="3.35"/>
	<ellipse class="st1" cx="38.58" cy="100.64" rx="8.39" ry="3.35"/>
	<ellipse class="st1" cx="54.51" cy="67.09" rx="7.55" ry="5.03"/>
	<ellipse class="st1" cx="101.48" cy="40.26" rx="15.93" ry="6.71"/>
	<ellipse class="st1" cx="137.54" cy="23.48" rx="15.1" ry="5.03"/>
	<ellipse class="st1" cx="147.6" cy="88.06" rx="5.03" ry="2.52"/>
	<ellipse class="st1" cx="124.96" cy="116.57" rx="7.55" ry="4.19"/>
	<ellipse class="st1" cx="109.86" cy="150.96" rx="7.55" ry="1.68"/>
	<ellipse class="st1" cx="83.03" cy="165.21" rx="9.23" ry="4.19"/>
	<path class="st1" d="M218.05,115.73c0,3.08,3.33,5.76,8.27,7.22c0.67-4.85,1.08-9.78,1.25-14.77
		C221.94,109.54,218.05,112.4,218.05,115.73z"/>
	<ellipse class="st1" cx="193.73" cy="169.41" rx="14.26" ry="8.39"/>
	<path class="st1" d="M217.21,65.41c-5.09,0-9.23,1.5-9.23,3.35c0,1.85,4.13,3.35,9.23,3.35c2.63,0,5-0.4,6.68-1.04
		c-0.4-1.69-0.84-3.37-1.31-5.03C221.07,65.65,219.22,65.41,217.21,65.41z"/>
	<ellipse class="st1" cx="197.92" cy="114.06" rx="10.06" ry="1.68"/>
	<ellipse class="st1" cx="73.8" cy="221.4" rx="11.74" ry="5.03"/>
	<circle class="st1" cx="118.25" cy="232.31" r="5.87"/>
	<path class="st2" d="M278.97,106.24c-10.84-43-40.63-79.44-79.5-93.89C238.36,29.78,268.09,64.22,278.97,106.24z"/>
	<path class="st2" d="M279,106.37c0.44,1.71,0.82,3.44,1.2,5.17C279.83,109.81,279.43,108.09,279,106.37z"/>
	<path class="st2" d="M282.33,124.09c0,0.04,0.01,0.07,0.01,0.11C282.34,124.16,282.33,124.13,282.33,124.09z"/>
	<path class="st0" d="M222.58,66.05c2.33,0.61,3.85,1.6,3.85,2.72c0,0.9-0.97,1.71-2.55,2.31c2.4,10.14,3.71,20.7,3.78,31.57
		c0.01,1.86-0.05,3.7-0.11,5.54c2.2-0.53,4.65-0.83,7.26-0.83c9.26,0,16.77,3.75,16.77,8.39c0,4.63-7.51,8.39-16.77,8.39
		c-3.11,0-6.01-0.43-8.5-1.17c-9.44,68.31-67.93,121.14-139.05,121.58c-17.84,0.11-34.92-3.11-50.67-9.04
		c26.08,29.23,64.12,47.56,106.42,47.3c78.03-0.49,140.89-64.02,140.4-141.89c-0.04-5.62-0.4-11.2-1.08-16.71
		c0-0.04-0.01-0.07-0.01-0.11c-0.52-4.23-1.25-8.41-2.13-12.55c-0.38-1.73-0.76-3.46-1.2-5.17c-0.01-0.04-0.02-0.09-0.03-0.13
		c-10.87-42.02-40.6-76.46-79.5-93.89c-2.48-0.92-4.99-1.79-7.55-2.53C206.12,25.74,216.74,44.9,222.58,66.05z M155.15,248.24
		c-5.09,0-9.23-2.25-9.23-5.03c0-2.78,4.13-5.03,9.23-5.03s9.23,2.25,9.23,5.03C164.38,245.99,160.25,248.24,155.15,248.24z
		 M230.63,189.54c2.32,0,4.19,1.13,4.19,2.52s-1.88,2.52-4.19,2.52s-4.19-1.13-4.19-2.52S228.31,189.54,230.63,189.54z
		 M195.41,219.73c-4.17,0-7.55-0.75-7.55-1.68c0-0.93,3.38-1.68,7.55-1.68c4.17,0,7.55,0.75,7.55,1.68
		C202.95,218.98,199.57,219.73,195.41,219.73z M222.24,224.76c-10.65,0-19.29-2.63-19.29-5.87s8.64-5.87,19.29-5.87
		c10.65,0,19.29,2.63,19.29,5.87S232.9,224.76,222.24,224.76z M245.73,161.02c-3.24,0-5.87,0-5.87,0S242.48,161.02,245.73,161.02
		s5.87,0,5.87,0S248.97,161.02,245.73,161.02z M241.53,82.19c3.71,0,6.71,1.5,6.71,3.35c0,1.85-3,3.35-6.71,3.35
		s-6.71-1.5-6.71-3.35C234.82,83.69,237.83,82.19,241.53,82.19z"/>
	<path class="st2" d="M222.58,66.05c2.33,0.61,3.85,1.6,3.85,2.72c0,0.9-0.97,1.71-2.55,2.31c2.4,10.14,3.71,20.7,3.78,31.57
		c0.01,1.86-0.05,3.7-0.11,5.54c2.2-0.53,4.65-0.83,7.26-0.83c9.26,0,16.77,3.75,16.77,8.39c0,4.63-7.51,8.39-16.77,8.39
		c-3.11,0-6.01-0.43-8.5-1.17c-9.44,68.31-67.93,121.14-139.05,121.58c-17.84,0.11-34.92-3.11-50.67-9.04
		c26.08,29.23,64.12,47.56,106.42,47.3c78.03-0.49,140.89-64.02,140.4-141.89c-0.04-5.62-0.4-11.2-1.08-16.71
		c0-0.04-0.01-0.07-0.01-0.11c-0.52-4.23-1.25-8.41-2.13-12.55c-0.38-1.73-0.76-3.46-1.2-5.17c-0.01-0.04-0.02-0.09-0.03-0.13
		c-10.87-42.02-40.6-76.46-79.5-93.89c-2.48-0.92-4.99-1.79-7.55-2.53C206.12,25.74,216.74,44.9,222.58,66.05z M155.15,248.24
		c-5.09,0-9.23-2.25-9.23-5.03c0-2.78,4.13-5.03,9.23-5.03s9.23,2.25,9.23,5.03C164.38,245.99,160.25,248.24,155.15,248.24z
		 M230.63,189.54c2.32,0,4.19,1.13,4.19,2.52s-1.88,2.52-4.19,2.52s-4.19-1.13-4.19-2.52S228.31,189.54,230.63,189.54z
		 M195.41,219.73c-4.17,0-7.55-0.75-7.55-1.68c0-0.93,3.38-1.68,7.55-1.68c4.17,0,7.55,0.75,7.55,1.68
		C202.95,218.98,199.57,219.73,195.41,219.73z M222.24,224.76c-10.65,0-19.29-2.63-19.29-5.87s8.64-5.87,19.29-5.87
		c10.65,0,19.29,2.63,19.29,5.87S232.9,224.76,222.24,224.76z M245.73,161.02c-3.24,0-5.87,0-5.87,0S242.48,161.02,245.73,161.02
		s5.87,0,5.87,0S248.97,161.02,245.73,161.02z M241.53,82.19c3.71,0,6.71,1.5,6.71,3.35c0,1.85-3,3.35-6.71,3.35
		s-6.71-1.5-6.71-3.35C234.82,83.69,237.83,82.19,241.53,82.19z"/>
	<path class="st1" d="M251.6,115.73c0-4.63-7.51-8.39-16.77-8.39c-2.6,0-5.06,0.31-7.26,0.83c-0.16,4.99-0.58,9.92-1.25,14.77
		c2.5,0.74,5.4,1.17,8.5,1.17C244.09,124.12,251.6,120.37,251.6,115.73z"/>
	<path class="st2" d="M251.6,115.73c0-4.63-7.51-8.39-16.77-8.39c-2.6,0-5.06,0.31-7.26,0.83c-0.16,4.99-0.58,9.92-1.25,14.77
		c2.5,0.74,5.4,1.17,8.5,1.17C244.09,124.12,251.6,120.37,251.6,115.73z"/>
	<ellipse class="st1" cx="222.24" cy="218.89" rx="19.29" ry="5.87"/>
	<ellipse class="st2" cx="222.24" cy="218.89" rx="19.29" ry="5.87"/>
	<ellipse class="st1" cx="195.41" cy="218.05" rx="7.55" ry="1.68"/>
	<ellipse class="st2" cx="195.41" cy="218.05" rx="7.55" ry="1.68"/>
	<ellipse class="st1" cx="230.63" cy="192.05" rx="4.19" ry="2.52"/>
	<ellipse class="st2" cx="230.63" cy="192.05" rx="4.19" ry="2.52"/>
	<ellipse class="st1" cx="241.53" cy="85.54" rx="6.71" ry="3.35"/>
	<ellipse class="st2" cx="241.53" cy="85.54" rx="6.71" ry="3.35"/>
	<path class="st1" d="M226.44,68.77c0-1.12-1.52-2.11-3.85-2.72c0.46,1.67,0.91,3.34,1.31,5.03
		C225.46,70.48,226.44,69.67,226.44,68.77z"/>
	<path class="st2" d="M226.44,68.77c0-1.12-1.52-2.11-3.85-2.72c0.46,1.67,0.91,3.34,1.31,5.03
		C225.46,70.48,226.44,69.67,226.44,68.77z"/>
	<ellipse class="st1" cx="155.15" cy="243.21" rx="9.23" ry="5.03"/>
	<ellipse class="st2" cx="155.15" cy="243.21" rx="9.23" ry="5.03"/>
</g>
</svg>
