<?xml version="1.0" encoding="utf-8"?>
<!-- Generator: Adobe Illustrator 23.0.3, SVG Export Plug-In . SVG Version: 6.00 Build 0)  -->
<svg version="1.1" id="Warstwa_1" xmlns="http://www.w3.org/2000/svg" xmlns:xlink="http://www.w3.org/1999/xlink" x="0px" y="0px"
	 viewBox="0 0 283.46 283.46" style="enable-background:new 0 0 283.46 283.46;" xml:space="preserve">
<style type="text/css">
	.st0{fill:#9D1F60;}
	.st1{fill:#D41C5C;}
	.st2{opacity:0.55;fill:#3F1D5C;}
</style>
<g>
	<g>
		<ellipse class="st0" cx="140.81" cy="141.73" rx="140.81" ry="141.73"/>
		<path class="st1" d="M197.62,145.93h-75.3c-2.2,0-4.01-1.8-4.01-4.01v-0.37c0-2.2,1.8-4.01,4.01-4.01h75.3
			c2.2,0,4.01,1.8,4.01,4.01v0.37C201.63,144.12,199.83,145.93,197.62,145.93z"/>
		<path class="st1" d="M235.15,107.35h-57.04c-2.64,0-4.81-2.16-4.81-4.81v-0.45c0-2.64,2.16-4.81,4.81-4.81h57.04
			c2.64,0,4.81,2.16,4.81,4.81v0.45C239.95,105.18,237.79,107.35,235.15,107.35z"/>
		<path class="st1" d="M112.57,102.32H52.39c-1.32,0-2.4-1.08-2.4-2.4v-0.22c0-1.32,1.08-2.4,2.4-2.4h60.18c1.32,0,2.4,1.08,2.4,2.4
			v0.22C114.98,101.23,113.9,102.32,112.57,102.32z"/>
		<path class="st1" d="M136.03,197.92H62.27c-3.09,0-5.61-2.52-5.61-5.61v-0.52c0-3.09,2.52-5.61,5.61-5.61h73.76
			c3.09,0,5.61,2.52,5.61,5.61v0.52C141.64,195.4,139.12,197.92,136.03,197.92z"/>
		<path class="st1" d="M260.27,177.79H149.65c-4.41,0-8.01-3.61-8.01-8.01v-0.75c0-4.41,3.61-8.01,8.01-8.01h110.61
			c4.41,0,8.01,3.61,8.01,8.01v0.75C268.28,174.19,264.68,177.79,260.27,177.79z"/>
		<path class="st1" d="M190.03,219.73H91.59c-0.88,0-1.6,0.72-1.6,1.6v0.15c0,0.88,0.72,1.6,1.6,1.6h98.44c0.88,0,1.6-0.72,1.6-1.6
			v-0.15C191.63,220.45,190.91,219.73,190.03,219.73z"/>
		<path class="st1" d="M259.21,82.19h-108.5c-1.32,0-2.4-1.08-2.4-2.4v-0.22c0-1.32,1.08-2.4,2.4-2.4h108.5c1.32,0,2.4,1.08,2.4,2.4
			v0.22C261.62,81.11,260.53,82.19,259.21,82.19z"/>
		<path class="st1" d="M235.02,63.74H99.92c-0.88,0-1.6-0.72-1.6-1.6v-0.15c0-0.88,0.72-1.6,1.6-1.6h135.1c0.88,0,1.6,0.72,1.6,1.6
			v0.15C236.62,63.02,235.9,63.74,235.02,63.74z"/>
		<polygon class="st1" points="108.31,137.54 26.66,137.54 26.66,137.54 108.31,137.54 		"/>
		<path class="st1" d="M190.22,248.24h-85.49c-3.53,0-6.41-2.89-6.41-6.41v-0.6c0-3.53,2.88-6.41,6.41-6.41h85.49
			c3.53,0,6.41,2.88,6.41,6.41v0.6C196.63,245.36,193.74,248.24,190.22,248.24z"/>
		<path class="st1" d="M23.94,75.48h87.1c3.09,0,5.61,2.52,5.61,5.61v0.52c0,3.09-2.52,5.61-5.61,5.61h-87.1
			c-3.09,0-5.61-2.52-5.61-5.61v-0.52C18.33,78,20.85,75.48,23.94,75.48z"/>
		<path class="st1" d="M10.55,157.67h67.23c3.97,0,7.21-3.25,7.21-7.21v-0.67c0-3.97-3.25-7.21-7.21-7.21H10.55
			c-3.97,0-7.21,3.25-7.21,7.21v0.67C3.33,154.42,6.58,157.67,10.55,157.67z"/>
		<path class="st1" d="M275.94,134.18h-71.97c-2.2,0-4.01-1.8-4.01-4.01v-0.37c0-2.2,1.8-4.01,4.01-4.01h71.97
			c2.2,0,4.01,1.8,4.01,4.01v0.37C279.95,132.38,278.14,134.18,275.94,134.18z"/>
		<path class="st1" d="M191.34,41.93H78.61c-2.91,0-5.29-2.38-5.29-5.29V33.8c0-2.91,2.38-5.29,5.29-5.29h112.74
			c2.91,0,5.29,2.38,5.29,5.29v2.84C196.63,39.55,194.25,41.93,191.34,41.93z"/>
		<path class="st2" d="M227.48,103.61c-0.57,77.88-65.15,140.54-144.24,139.95c-18.08-0.13-35.34-3.6-51.23-9.74
			c26.03,29.59,64.34,48.45,107.21,48.77c79.09,0.59,143.67-62.07,144.24-139.95c0.44-60.07-37.35-111.62-90.94-132.34
			C214.51,35.29,227.75,67.94,227.48,103.61z"/>
	</g>
</g>
</svg>
